<?xml version="1.0" standalone="no"?><!DOCTYPE svg PUBLIC "-//W3C//DTD SVG 1.1//EN" "http://www.w3.org/Graphics/SVG/1.1/DTD/svg11.dtd"><svg t="1566463668923" class="icon" viewBox="0 0 1024 1024" version="1.1" xmlns="http://www.w3.org/2000/svg" p-id="2510" xmlns:xlink="http://www.w3.org/1999/xlink" width="200" height="200"><defs><style type="text/css"></style></defs><path d="M121.3696 856.9344c-3.6608 0-7.2704-1.0496-10.3936-3.072L47.872 813.1328c-4.9408-3.1744-8.1408-8.4992-8.704-14.3616-0.5376-5.8624 1.6384-11.6736 5.9136-15.7184 0.5888-0.5888 60.0576-57.9072 77.8496-149.376-11.4688-10.5728-28.4416-30.4128-26.9568-54.2208 0.7424-11.5456 6.144-27.4688 26.4192-41.5232 0.2816-25.5744 3.9424-83.8144 30.336-116.5056l-88.576-42.752c-6.9376-3.3792-11.2128-10.5472-10.8288-18.2528s5.3248-14.4128 12.5696-17.0752L505.6256 182.528c4.2496-1.5872 8.9344-1.5616 13.2352 0l443.8016 162.8416c7.5264 2.7648 12.544 9.9584 12.5696 17.9712 0.0256 8.0384-4.9664 15.232-12.4928 18.048L518.912 546.7648c-4.3008 1.6128-9.0624 1.6128-13.4144-0.0256l-218.8032-81.8688c-7.424-2.7648-12.3648-9.8304-12.4672-17.7152-0.1024-7.936 4.6848-15.104 12.032-18.048l228.1472-92.0832c0.2304-1.4848 0.3328-2.8416 0.3072-3.968L250.624 438.2464c-1.9456 0.8192-47.488 20.864-48.9728 101.5296 6.5536 6.528 14.5664 17.3568 16.64 32.4608 2.2272 16.3584-3.0208 32.896-15.616 49.28 5.5552 40.1664 21.0688 199.5008-74.752 234.2912C125.7984 856.5504 123.5712 856.9344 121.3696 856.9344z" p-id="2511"></path><path d="M514.1504 737.9712c-86.784 0-204.7488-14.592-274.048-84.1472-6.6816-6.7072-7.4752-17.28-1.8944-24.9088 4.4544-6.1952 15.4112-26.1888 12.0576-43.4176-1.8688-9.7024-8.0896-17.7408-19.0464-24.6784-5.5552-3.5328-8.9344-9.6512-8.9344-16.2304l0-61.056c0-6.1696 2.9696-11.9808 7.9872-15.5648s11.4944-4.5824 17.3056-2.6624l274.816 91.5968 270.7456-91.5712c5.8368-1.9456 12.288-1.024 17.3568 2.6112 5.0176 3.6096 8.0128 9.4208 8.0128 15.5904l0 142.464c0 1.28-0.128 2.5344-0.384 3.7632-2.1248 10.5728-21.4272 65.1776-194.1248 100.5312C621.2352 730.7776 575.6672 737.9712 514.1504 737.9712z" p-id="2512"></path></svg>