<?xml version="1.0" standalone="no"?><!DOCTYPE svg PUBLIC "-//W3C//DTD SVG 1.1//EN" "http://www.w3.org/Graphics/SVG/1.1/DTD/svg11.dtd"><svg t="1564841820161" class="icon" viewBox="0 0 1024 1024" version="1.1" xmlns="http://www.w3.org/2000/svg" p-id="2059" xmlns:xlink="http://www.w3.org/1999/xlink" width="200" height="200"><defs><style type="text/css"></style></defs><path d="M174.08064 185.6c73.6 0 183.68 8.96 293.12 96.64l-1.28 451.2c-62.08-22.4-160.64-46.08-248.96-46.08-18.56 0-36.48 1.28-53.76 3.2V185.6h10.88m0-63.36C128.00064 122.24 99.20064 128 99.20064 128v642.56c37.76-13.44 78.08-19.2 117.76-19.2 151.68 0 298.88 78.72 298.88 78.72V240.64C393.60064 140.16 256.64064 122.24 174.08064 122.24zM852.48064 178.56h17.28v503.68c-30.08-7.68-61.44-11.52-92.8-11.52-76.16 0-177.92 26.24-230.4 50.56V287.36c119.68-108.8 232.96-108.8 305.92-108.8m0-64c-83.2 0-217.6 19.84-336 126.08v589.44s115.2-95.36 259.84-95.36c49.92 0 103.04 11.52 156.8 41.6V121.6s-31.36-7.04-80.64-7.04z" p-id="2060"></path><path d="M505.60064 909.44c-3.84 0-7.68-0.64-10.88-1.92-253.44-95.36-448-14.08-449.92-12.8-9.6 4.48-21.12 3.2-30.08-2.56a32.64 32.64 0 0 1-14.72-27.52V205.44c0-17.28 14.08-32 32-32s32 14.08 32 32v615.04c75.52-21.12 239.36-49.92 439.68 21.76 53.76-27.52 257.92-118.4 456.96-42.24V205.44c0-17.28 14.08-32 32-32 17.28 0 32 14.08 32 32v643.84c0 10.88-5.76 21.12-15.36 27.52-9.6 5.76-21.12 6.4-31.36 0.64-208.64-109.44-453.76 26.24-455.68 27.52-5.76 2.56-10.88 4.48-16.64 4.48z" p-id="2061"></path></svg>