<?xml version="1.0" standalone="no"?><!DOCTYPE svg PUBLIC "-//W3C//DTD SVG 1.1//EN" "http://www.w3.org/Graphics/SVG/1.1/DTD/svg11.dtd"><svg t="1564838129757" class="icon" viewBox="0 0 1024 1024" version="1.1" xmlns="http://www.w3.org/2000/svg" p-id="4640" xmlns:xlink="http://www.w3.org/1999/xlink" width="200" height="200"><defs><style type="text/css"></style></defs><path d="M925.343456 482.229807c-8.560092 0-16.507542 1.837927-24.450767 4.284271l-353.262255-295.20066a71.763657 71.763657 0 0 0 4.888464-26.280244c0-37.899323-30.556065-68.451164-68.451164-68.451164-36.669814 0-67.225879 29.335006-68.451164 66.009045L189.479716 237.764384c-12.835914-14.056973-30.556065-23.225483-51.339429-23.225483a68.337085 68.337085 0 0 0-68.451163 68.451163c0 29.947648 18.945437 55.006833 45.229906 64.171118l-18.945437 435.770391c-31.785575 7.334808-56.227892 36.057171-56.227892 70.897508a72.511504 72.511504 0 0 0 72.731209 72.726984c34.831886 0 63.5627-23.8339 70.893283-56.227892l336.15052-72.73121c11.002212 13.448556 27.505529 21.391781 45.838323 21.391781a58.433405 58.433405 0 0 0 58.674237-57.448952l254.255025-150.963525c12.835914 10.393794 28.726589 17.11596 46.442516 17.115959a72.519954 72.519954 0 0 0 72.735435-72.731209c1.212609-40.328767-31.785575-72.73121-72.122793-72.73121z m-317.813501 236.534874a58.644661 58.644661 0 0 0-41.562502-17.120185c-5.505331 0-11.002212 0.616867-15.8949 2.450569l-95.952467-113.072652c6.722165-8.551642 12.223271-18.332794 15.278033-29.335006l383.818319 11.002212-245.686483 146.075062z m-99.624096 34.836111l-327.598878 70.897508c-1.833702-4.288496-4.275821-7.94745-6.722165-11.614854l158.294108-196.193431c13.448556 7.334808 29.335006 11.614854 46.455191 11.614854 14.661165 0 28.113946-3.058987 40.332992-9.16851l95.952467 113.072652c-3.654729 6.71794-6.105298 14.056973-6.713715 21.391781zM169.308995 344.719063l126.512758 137.510744c-9.16851 14.673841-14.061198 31.78135-14.061198 50.118369 0 19.558079 6.113748 37.895098 15.8949 53.173131l-154.63093 191.913385L161.35732 347.773824c3.063212-1.22106 5.509556-1.829477 7.951675-3.054761z m690.633834 179.073246l-387.494174-11.002212c-6.109523-28.726589-24.442317-52.556263-49.501502-65.396402L490.789899 233.480112c9.776927-0.608417 18.332794-3.663179 26.28447-7.939l347.765374 290.307972c-1.837927 1.833702-3.675854 4.892689-4.896914 7.943225zM429.673543 205.983034c4.280046 6.109523 9.776927 11.614854 16.499093 15.278032l-67.834296 213.917808c-17.120185 0-33.006635 4.275821-47.063608 12.219046L202.311405 308.657666c3.054762-7.943225 4.888463-16.499092 4.888463-25.059184v-3.054762l222.473675-74.560686z m0 0" fill="#333333" p-id="4641"></path><path d="M373.044265 530.582076m-109.248919 0a109.248919 109.248919 0 1 0 218.497838 0 109.248919 109.248919 0 1 0-218.497838 0Z" fill="#333333" p-id="4642"></path></svg>