<?xml version="1.0" standalone="no"?><!DOCTYPE svg PUBLIC "-//W3C//DTD SVG 1.1//EN" "http://www.w3.org/Graphics/SVG/1.1/DTD/svg11.dtd"><svg t="1564836882301" class="icon" viewBox="0 0 1280 1024" version="1.1" xmlns="http://www.w3.org/2000/svg" p-id="2108" xmlns:xlink="http://www.w3.org/1999/xlink" width="250" height="200"><defs><style type="text/css"></style></defs><path d="M514.263 349.831c26.072 0 43.453-17.423 43.453-43.411 0-26.241-17.381-43.242-43.453-43.242-26.072 0-52.228 17.002-52.228 43.242 0 25.988 26.198 43.453 52.228 43.453zM271.305 263.178c-26.030 0-52.355 17.002-52.355 43.242 0 25.988 26.325 43.453 52.355 43.453 25.945 0 43.327-17.466 43.327-43.453 0-26.241-17.381-43.242-43.327-43.242zM1033.591 627.763c0-137.32-127.406-254.348-283.753-266.498 0.117-0.718 0.184-1.547 0.184-2.39 0-1.020-0.097-2.017-0.283-2.982-31.329-146.081-188.562-256.275-365.665-256.275-200.137 0-362.981 139.556-362.981 311.133 0 92.011 46.955 174.952 136.013 240.342l-31.050 93.361c-0.489 1.462-0.772 3.144-0.772 4.894 0 8.759 7.080 15.864 15.828 15.905 2.598-0.016 5.041-0.65 7.198-1.76l116.416-58.231 14.344 2.953c35.859 7.341 66.867 13.753 105.047 13.753 11.18 0 42.103-4.134 44.719-7.425 42.019 105.173 157.823 181.069 294.089 181.069 34.889 0 70.242-8.438 101.967-16.369l89.817 49.106c2.189 1.208 4.801 1.92 7.576 1.92 3.772 0 7.235-1.312 9.962-3.505 3.557-2.892 5.831-7.305 5.831-12.249 0-1.627-0.246-3.196-0.703-4.672l-22.878-76.163c76.908-60.75 119.095-133.481 119.095-205.875zM414.152 679.569c-9.956 0.844-19.997 1.266-29.995 1.266-33.708 0-62.227-5.822-95.175-12.656l-19.153-3.839c-0.936-0.212-2.011-0.333-3.115-0.333-2.435 0-4.732 0.591-6.756 1.638l-84.124 42.149 21.853-65.728c0.496-1.44 0.782-3.098 0.782-4.824 0-5.157-2.557-9.718-6.472-12.483-84.634-59.011-127.539-130.897-127.539-213.585 0-148.627 143.438-269.578 319.697-269.578 155.798 0 293.752 94.753 322.228 220.852-163.392 2.109-295.566 116.986-295.566 258.061 0 20.503 3.122 40.373 8.353 59.569-1.242-0.366-2.668-0.576-4.144-0.576-0.322 0-0.644 0.009-0.963 0.030zM878.637 806.3c-3.659 2.778-5.997 7.13-5.997 12.029 0 1.549 0.232 3.041 0.667 4.447l14.231 47.186-58.43-31.936c-2.083-1.163-4.569-1.848-7.217-1.848-1.302 0-2.567 0.165-3.773 0.478-31.199 7.909-63.598 16.051-95.197 16.051-146.559 0-265.781-100.702-265.781-224.522s119.18-224.522 265.781-224.522c143.817 0 265.317 102.811 265.317 224.522 0 61.72-38.939 125.002-109.603 178.116zM627.199 514.869c-17.381 0-34.762 17.508-34.762 34.847 0 17.466 17.381 34.72 34.762 34.72 26.072 0 43.327-17.255 43.327-34.72 0-17.381-17.255-34.847-43.327-34.847zM818.013 514.869c-17.086 0-34.467 17.508-34.467 34.847 0 17.466 17.381 34.72 34.467 34.72 26.030 0 43.58-17.255 43.58-34.72 0-17.381-17.508-34.847-43.58-34.847z" fill="#11CD6E" p-id="2109"></path></svg>